<svg xmlns="http://www.w3.org/2000/svg" xmlns:xlink="http://www.w3.org/1999/xlink" width="872" height="166" viewBox="0 0 872 166">
  <defs>
    <clipPath id="clip-Mesa_de_trabajo_1">
      <rect width="872" height="166"/>
    </clipPath>
  </defs>
  <g id="Mesa_de_trabajo_1" data-name="Mesa de trabajo – 1" clip-path="url(#clip-Mesa_de_trabajo_1)">
    <rect width="872" height="166" fill="#fff"/>
    <g id="Rectángulo_1" data-name="Rectángulo 1" transform="translate(0 -3)" fill="#3d2086" stroke="#707070" stroke-width="1">
      <rect width="873" height="171" stroke="none"/>
      <rect x="0.5" y="0.5" width="872" height="170" fill="none"/>
    </g>
    <text id="Wifi_Tracing" data-name="Wifi Tracing" transform="translate(380 91)" fill="#fff" font-size="20" font-family="HelveticaNeue-Bold, Helvetica Neue" font-weight="700"><tspan x="0" y="0">Wifi Tracing</tspan></text>
    <g id="Elipse_1" data-name="Elipse 1" transform="matrix(0.966, 0.259, -0.259, 0.966, 97.622, 36.704)" fill="#fff" stroke="#707070" stroke-width="1" opacity="0.557">
      <circle cx="12" cy="12" r="12" stroke="none"/>
      <circle cx="12" cy="12" r="11.5" fill="none"/>
    </g>
    <g id="Elipse_2" data-name="Elipse 2" transform="matrix(0.966, 0.259, -0.259, 0.966, 84.894, 14.658)" fill="#fff" stroke="#707070" stroke-width="1" opacity="0.164">
      <circle cx="30" cy="30" r="30" stroke="none"/>
      <circle cx="30" cy="30" r="29.5" fill="none"/>
    </g>
    <g id="Elipse_3" data-name="Elipse 3" transform="matrix(0.966, 0.259, -0.259, 0.966, 71.459, -8.612)" fill="#fff" stroke="#707070" stroke-width="1" opacity="0.164">
      <circle cx="49" cy="49" r="49" stroke="none"/>
      <circle cx="49" cy="49" r="48.5" fill="none"/>
    </g>
    <g id="Trazado_1" data-name="Trazado 1" transform="matrix(0.966, 0.259, -0.259, 0.966, 60.852, -26.983)" fill="#fff" opacity="0.164">
      <path d="M 64.5 128.5 C 55.85983276367188 128.5 47.4783821105957 126.8079147338867 39.58846664428711 123.4707641601562 C 35.79631805419922 121.866813659668 32.13873291015625 119.8815536499023 28.71733283996582 117.5700988769531 C 25.32831573486328 115.2805328369141 22.14141654968262 112.6510848999023 19.24516677856445 109.7548370361328 C 16.34891700744629 106.8585815429688 13.71946620941162 103.6716842651367 11.42990016937256 100.2826690673828 C 9.118450164794922 96.86126708984375 7.133183479309082 93.20368194580078 5.529233455657959 89.41152954101562 C 2.192083358764648 81.52161407470703 0.5 73.14016723632812 0.5 64.5 C 0.5 55.85983276367188 2.192083358764648 47.4783821105957 5.529233455657959 39.58846664428711 C 7.133183479309082 35.79631805419922 9.118450164794922 32.13873291015625 11.42990016937256 28.71733283996582 C 13.71946620941162 25.32831573486328 16.34891700744629 22.14141654968262 19.24516677856445 19.24516677856445 C 22.14141654968262 16.34891700744629 25.32831573486328 13.71946620941162 28.71733283996582 11.42990016937256 C 32.13873291015625 9.118450164794922 35.79631805419922 7.133183479309082 39.58846664428711 5.529233455657959 C 47.4783821105957 2.192083358764648 55.85983276367188 0.5 64.5 0.5 C 73.14016723632812 0.5 81.52161407470703 2.192083358764648 89.41152954101562 5.529233455657959 C 93.20368194580078 7.133183479309082 96.86126708984375 9.118450164794922 100.2826690673828 11.42990016937256 C 103.6716842651367 13.71946620941162 106.8585815429688 16.34891700744629 109.7548370361328 19.24516677856445 C 112.6510848999023 22.14141654968262 115.2805328369141 25.32831573486328 117.5700988769531 28.71733283996582 C 119.8815536499023 32.13873291015625 121.866813659668 35.79631805419922 123.4707641601562 39.58846664428711 C 126.8079147338867 47.4783821105957 128.5 55.85983276367188 128.5 64.5 C 128.5 73.14016723632812 126.8079147338867 81.52161407470703 123.4707641601562 89.41152954101562 C 121.866813659668 93.20368194580078 119.8815536499023 96.86126708984375 117.5700988769531 100.2826690673828 C 115.2805328369141 103.6716842651367 112.6510848999023 106.8585815429688 109.7548370361328 109.7548370361328 C 106.8585815429688 112.6510848999023 103.6716842651367 115.2805328369141 100.2826690673828 117.5700988769531 C 96.86126708984375 119.8815536499023 93.20368194580078 121.866813659668 89.41152954101562 123.4707641601562 C 81.52161407470703 126.8079147338867 73.14016723632812 128.5 64.5 128.5 Z" stroke="none"/>
      <path d="M 64.5 1 C 55.92711639404297 1 47.61119842529297 2.678779602050781 39.78323364257812 5.989730834960938 C 36.02081298828125 7.581100463867188 32.39188385009766 9.550834655761719 28.99725341796875 11.84421539306641 C 25.63459777832031 14.115966796875 22.47246551513672 16.72496795654297 19.59871673583984 19.59871673583984 C 16.72496795654297 22.47246551513672 14.115966796875 25.63459777832031 11.84421539306641 28.99725341796875 C 9.550834655761719 32.39188385009766 7.581100463867188 36.02081298828125 5.989730834960938 39.78323364257812 C 2.678779602050781 47.61119842529297 1 55.92711639404297 1 64.5 C 1 73.07288360595703 2.678779602050781 81.38880157470703 5.989730834960938 89.21675109863281 C 7.581100463867188 92.97917175292969 9.550834655761719 96.60810089111328 11.84421539306641 100.0027465820312 C 14.115966796875 103.3654022216797 16.72496795654297 106.5275192260742 19.59871673583984 109.4012680053711 C 22.47246551513672 112.275032043457 25.63459777832031 114.8840179443359 28.99725341796875 117.1557846069336 C 32.39188385009766 119.4491653442383 36.02081298828125 121.4188995361328 39.78323364257812 123.0102691650391 C 47.61119842529297 126.3212127685547 55.92711639404297 128 64.5 128 C 73.07288360595703 128 81.38880157470703 126.3212127685547 89.21675109863281 123.0102691650391 C 92.97917175292969 121.4188995361328 96.60810089111328 119.4491653442383 100.0027465820312 117.1557846069336 C 103.3654022216797 114.8840179443359 106.5275192260742 112.275032043457 109.4012680053711 109.4012680053711 C 112.275032043457 106.5275192260742 114.8840179443359 103.3654022216797 117.1557846069336 100.0027465820312 C 119.4491653442383 96.60810089111328 121.4188995361328 92.97917175292969 123.0102691650391 89.21675109863281 C 126.3212127685547 81.38880157470703 128 73.07288360595703 128 64.5 C 128 55.92711639404297 126.3212127685547 47.61119842529297 123.0102691650391 39.78323364257812 C 121.4188995361328 36.02081298828125 119.4491653442383 32.39188385009766 117.1557846069336 28.99725341796875 C 114.8840179443359 25.63459777832031 112.275032043457 22.47246551513672 109.4012680053711 19.59871673583984 C 106.5275192260742 16.72496795654297 103.3654022216797 14.115966796875 100.0027465820312 11.84421539306641 C 96.60810089111328 9.550834655761719 92.97917175292969 7.581100463867188 89.21675109863281 5.989730834960938 C 81.38880157470703 2.678779602050781 73.07288360595703 1 64.5 1 M 64.5 0 C 100.1223526000977 0 129 28.87763214111328 129 64.5 C 129 100.1223526000977 100.1223526000977 129 64.5 129 C 28.87763214111328 129 0 100.1223526000977 0 64.5 C 0 28.87763214111328 28.87763214111328 0 64.5 0 Z" stroke="none" fill="#707070"/>
    </g>
    <g id="Elipse_4" data-name="Elipse 4" transform="matrix(0.966, 0.259, -0.259, 0.966, 242.7, -14.426)" fill="#fff" stroke="#707070" stroke-width="1" opacity="0.557">
      <circle cx="12" cy="12" r="12" stroke="none"/>
      <circle cx="12" cy="12" r="11.5" fill="none"/>
    </g>
    <g id="Elipse_5" data-name="Elipse 5" transform="matrix(0.966, 0.259, -0.259, 0.966, 229.972, -36.471)" fill="#fff" stroke="#707070" stroke-width="1" opacity="0.164">
      <circle cx="30" cy="30" r="30" stroke="none"/>
      <circle cx="30" cy="30" r="29.5" fill="none"/>
    </g>
    <g id="Elipse_6" data-name="Elipse 6" transform="matrix(0.966, 0.259, -0.259, 0.966, 216.537, -59.742)" fill="#fff" stroke="#707070" stroke-width="1" opacity="0.164">
      <circle cx="49" cy="49" r="49" stroke="none"/>
      <circle cx="49" cy="49" r="48.5" fill="none"/>
    </g>
    <g id="Trazado_2" data-name="Trazado 2" transform="matrix(0.966, 0.259, -0.259, 0.966, 205.931, -78.113)" fill="#fff" opacity="0.164">
      <path d="M 64.5 128.5 C 55.85983276367188 128.5 47.4783821105957 126.8079147338867 39.58846664428711 123.4707641601562 C 35.79631805419922 121.866813659668 32.13873291015625 119.8815536499023 28.71733283996582 117.5700988769531 C 25.32831573486328 115.2805328369141 22.14141654968262 112.6510848999023 19.24516677856445 109.7548370361328 C 16.34891700744629 106.8585815429688 13.71946620941162 103.6716842651367 11.42990016937256 100.2826690673828 C 9.118450164794922 96.86126708984375 7.133183479309082 93.20368194580078 5.529233455657959 89.41152954101562 C 2.192083358764648 81.52161407470703 0.5 73.14016723632812 0.5 64.5 C 0.5 55.85983276367188 2.192083358764648 47.4783821105957 5.529233455657959 39.58846664428711 C 7.133183479309082 35.79631805419922 9.118450164794922 32.13873291015625 11.42990016937256 28.71733283996582 C 13.71946620941162 25.32831573486328 16.34891700744629 22.14141654968262 19.24516677856445 19.24516677856445 C 22.14141654968262 16.34891700744629 25.32831573486328 13.71946620941162 28.71733283996582 11.42990016937256 C 32.13873291015625 9.118450164794922 35.79631805419922 7.133183479309082 39.58846664428711 5.529233455657959 C 47.4783821105957 2.192083358764648 55.85983276367188 0.5 64.5 0.5 C 73.14016723632812 0.5 81.52161407470703 2.192083358764648 89.41152954101562 5.529233455657959 C 93.20368194580078 7.133183479309082 96.86126708984375 9.118450164794922 100.2826690673828 11.42990016937256 C 103.6716842651367 13.71946620941162 106.8585815429688 16.34891700744629 109.7548370361328 19.24516677856445 C 112.6510848999023 22.14141654968262 115.2805328369141 25.32831573486328 117.5700988769531 28.71733283996582 C 119.8815536499023 32.13873291015625 121.866813659668 35.79631805419922 123.4707641601562 39.58846664428711 C 126.8079147338867 47.4783821105957 128.5 55.85983276367188 128.5 64.5 C 128.5 73.14016723632812 126.8079147338867 81.52161407470703 123.4707641601562 89.41152954101562 C 121.866813659668 93.20368194580078 119.8815536499023 96.86126708984375 117.5700988769531 100.2826690673828 C 115.2805328369141 103.6716842651367 112.6510848999023 106.8585815429688 109.7548370361328 109.7548370361328 C 106.8585815429688 112.6510848999023 103.6716842651367 115.2805328369141 100.2826690673828 117.5700988769531 C 96.86126708984375 119.8815536499023 93.20368194580078 121.866813659668 89.41152954101562 123.4707641601562 C 81.52161407470703 126.8079147338867 73.14016723632812 128.5 64.5 128.5 Z" stroke="none"/>
      <path d="M 64.5 1 C 55.92711639404297 1 47.61119842529297 2.678779602050781 39.78323364257812 5.989730834960938 C 36.02081298828125 7.581100463867188 32.39188385009766 9.550834655761719 28.99725341796875 11.84421539306641 C 25.63459777832031 14.115966796875 22.47246551513672 16.72496795654297 19.59871673583984 19.59871673583984 C 16.72496795654297 22.47246551513672 14.115966796875 25.63459777832031 11.84421539306641 28.99725341796875 C 9.550834655761719 32.39188385009766 7.581100463867188 36.02081298828125 5.989730834960938 39.78323364257812 C 2.678779602050781 47.61119842529297 1 55.92711639404297 1 64.5 C 1 73.07288360595703 2.678779602050781 81.38880157470703 5.989730834960938 89.21675109863281 C 7.581100463867188 92.97917175292969 9.550834655761719 96.60810089111328 11.84421539306641 100.0027465820312 C 14.115966796875 103.3654022216797 16.72496795654297 106.5275192260742 19.59871673583984 109.4012680053711 C 22.47246551513672 112.275032043457 25.63459777832031 114.8840179443359 28.99725341796875 117.1557846069336 C 32.39188385009766 119.4491653442383 36.02081298828125 121.4188995361328 39.78323364257812 123.0102691650391 C 47.61119842529297 126.3212127685547 55.92711639404297 128 64.5 128 C 73.07288360595703 128 81.38880157470703 126.3212127685547 89.21675109863281 123.0102691650391 C 92.97917175292969 121.4188995361328 96.60810089111328 119.4491653442383 100.0027465820312 117.1557846069336 C 103.3654022216797 114.8840179443359 106.5275192260742 112.275032043457 109.4012680053711 109.4012680053711 C 112.275032043457 106.5275192260742 114.8840179443359 103.3654022216797 117.1557846069336 100.0027465820312 C 119.4491653442383 96.60810089111328 121.4188995361328 92.97917175292969 123.0102691650391 89.21675109863281 C 126.3212127685547 81.38880157470703 128 73.07288360595703 128 64.5 C 128 55.92711639404297 126.3212127685547 47.61119842529297 123.0102691650391 39.78323364257812 C 121.4188995361328 36.02081298828125 119.4491653442383 32.39188385009766 117.1557846069336 28.99725341796875 C 114.8840179443359 25.63459777832031 112.275032043457 22.47246551513672 109.4012680053711 19.59871673583984 C 106.5275192260742 16.72496795654297 103.3654022216797 14.115966796875 100.0027465820312 11.84421539306641 C 96.60810089111328 9.550834655761719 92.97917175292969 7.581100463867188 89.21675109863281 5.989730834960938 C 81.38880157470703 2.678779602050781 73.07288360595703 1 64.5 1 M 64.5 0 C 100.1223526000977 0 129 28.87763214111328 129 64.5 C 129 100.1223526000977 100.1223526000977 129 64.5 129 C 28.87763214111328 129 0 100.1223526000977 0 64.5 C 0 28.87763214111328 28.87763214111328 0 64.5 0 Z" stroke="none" fill="#707070"/>
    </g>
    <g id="Elipse_7" data-name="Elipse 7" transform="matrix(0.966, 0.259, -0.259, 0.966, 200.772, 151.054)" fill="#fff" stroke="#707070" stroke-width="1" opacity="0.557">
      <circle cx="12" cy="12" r="12" stroke="none"/>
      <circle cx="12" cy="12" r="11.5" fill="none"/>
    </g>
    <g id="Elipse_8" data-name="Elipse 8" transform="matrix(0.966, 0.259, -0.259, 0.966, 188.044, 129.009)" fill="#fff" stroke="#707070" stroke-width="1" opacity="0.164">
      <circle cx="30" cy="30" r="30" stroke="none"/>
      <circle cx="30" cy="30" r="29.5" fill="none"/>
    </g>
    <g id="Elipse_9" data-name="Elipse 9" transform="matrix(0.966, 0.259, -0.259, 0.966, 174.609, 105.738)" fill="#fff" stroke="#707070" stroke-width="1" opacity="0.164">
      <circle cx="49" cy="49" r="49" stroke="none"/>
      <circle cx="49" cy="49" r="48.5" fill="none"/>
    </g>
    <g id="Trazado_3" data-name="Trazado 3" transform="matrix(0.966, 0.259, -0.259, 0.966, 164.002, 87.367)" fill="#fff" opacity="0.164">
      <path d="M 64.5 128.5 C 55.85983276367188 128.5 47.4783821105957 126.8079147338867 39.58846664428711 123.4707641601562 C 35.79631805419922 121.866813659668 32.13873291015625 119.8815536499023 28.71733283996582 117.5700988769531 C 25.32831573486328 115.2805328369141 22.14141654968262 112.6510848999023 19.24516677856445 109.7548370361328 C 16.34891700744629 106.8585815429688 13.71946620941162 103.6716842651367 11.42990016937256 100.2826690673828 C 9.118450164794922 96.86126708984375 7.133183479309082 93.20368194580078 5.529233455657959 89.41152954101562 C 2.192083358764648 81.52161407470703 0.5 73.14016723632812 0.5 64.5 C 0.5 55.85983276367188 2.192083358764648 47.4783821105957 5.529233455657959 39.58846664428711 C 7.133183479309082 35.79631805419922 9.118450164794922 32.13873291015625 11.42990016937256 28.71733283996582 C 13.71946620941162 25.32831573486328 16.34891700744629 22.14141654968262 19.24516677856445 19.24516677856445 C 22.14141654968262 16.34891700744629 25.32831573486328 13.71946620941162 28.71733283996582 11.42990016937256 C 32.13873291015625 9.118450164794922 35.79631805419922 7.133183479309082 39.58846664428711 5.529233455657959 C 47.4783821105957 2.192083358764648 55.85983276367188 0.5 64.5 0.5 C 73.14016723632812 0.5 81.52161407470703 2.192083358764648 89.41152954101562 5.529233455657959 C 93.20368194580078 7.133183479309082 96.86126708984375 9.118450164794922 100.2826690673828 11.42990016937256 C 103.6716842651367 13.71946620941162 106.8585815429688 16.34891700744629 109.7548370361328 19.24516677856445 C 112.6510848999023 22.14141654968262 115.2805328369141 25.32831573486328 117.5700988769531 28.71733283996582 C 119.8815536499023 32.13873291015625 121.866813659668 35.79631805419922 123.4707641601562 39.58846664428711 C 126.8079147338867 47.4783821105957 128.5 55.85983276367188 128.5 64.5 C 128.5 73.14016723632812 126.8079147338867 81.52161407470703 123.4707641601562 89.41152954101562 C 121.866813659668 93.20368194580078 119.8815536499023 96.86126708984375 117.5700988769531 100.2826690673828 C 115.2805328369141 103.6716842651367 112.6510848999023 106.8585815429688 109.7548370361328 109.7548370361328 C 106.8585815429688 112.6510848999023 103.6716842651367 115.2805328369141 100.2826690673828 117.5700988769531 C 96.86126708984375 119.8815536499023 93.20368194580078 121.866813659668 89.41152954101562 123.4707641601562 C 81.52161407470703 126.8079147338867 73.14016723632812 128.5 64.5 128.5 Z" stroke="none"/>
      <path d="M 64.5 1 C 55.92711639404297 1 47.61119842529297 2.678779602050781 39.78323364257812 5.989730834960938 C 36.02081298828125 7.581100463867188 32.39188385009766 9.550834655761719 28.99725341796875 11.84421539306641 C 25.63459777832031 14.115966796875 22.47246551513672 16.72496795654297 19.59871673583984 19.59871673583984 C 16.72496795654297 22.47246551513672 14.115966796875 25.63459777832031 11.84421539306641 28.99725341796875 C 9.550834655761719 32.39188385009766 7.581100463867188 36.02081298828125 5.989730834960938 39.78323364257812 C 2.678779602050781 47.61119842529297 1 55.92711639404297 1 64.5 C 1 73.07288360595703 2.678779602050781 81.38880157470703 5.989730834960938 89.21675109863281 C 7.581100463867188 92.97917175292969 9.550834655761719 96.60810089111328 11.84421539306641 100.0027465820312 C 14.115966796875 103.3654022216797 16.72496795654297 106.5275192260742 19.59871673583984 109.4012680053711 C 22.47246551513672 112.275032043457 25.63459777832031 114.8840179443359 28.99725341796875 117.1557846069336 C 32.39188385009766 119.4491653442383 36.02081298828125 121.4188995361328 39.78323364257812 123.0102691650391 C 47.61119842529297 126.3212127685547 55.92711639404297 128 64.5 128 C 73.07288360595703 128 81.38880157470703 126.3212127685547 89.21675109863281 123.0102691650391 C 92.97917175292969 121.4188995361328 96.60810089111328 119.4491653442383 100.0027465820312 117.1557846069336 C 103.3654022216797 114.8840179443359 106.5275192260742 112.275032043457 109.4012680053711 109.4012680053711 C 112.275032043457 106.5275192260742 114.8840179443359 103.3654022216797 117.1557846069336 100.0027465820312 C 119.4491653442383 96.60810089111328 121.4188995361328 92.97917175292969 123.0102691650391 89.21675109863281 C 126.3212127685547 81.38880157470703 128 73.07288360595703 128 64.5 C 128 55.92711639404297 126.3212127685547 47.61119842529297 123.0102691650391 39.78323364257812 C 121.4188995361328 36.02081298828125 119.4491653442383 32.39188385009766 117.1557846069336 28.99725341796875 C 114.8840179443359 25.63459777832031 112.275032043457 22.47246551513672 109.4012680053711 19.59871673583984 C 106.5275192260742 16.72496795654297 103.3654022216797 14.115966796875 100.0027465820312 11.84421539306641 C 96.60810089111328 9.550834655761719 92.97917175292969 7.581100463867188 89.21675109863281 5.989730834960938 C 81.38880157470703 2.678779602050781 73.07288360595703 1 64.5 1 M 64.5 0 C 100.1223526000977 0 129 28.87763214111328 129 64.5 C 129 100.1223526000977 100.1223526000977 129 64.5 129 C 28.87763214111328 129 0 100.1223526000977 0 64.5 C 0 28.87763214111328 28.87763214111328 0 64.5 0 Z" stroke="none" fill="#707070"/>
    </g>
    <g id="Trazado_4" data-name="Trazado 4" transform="translate(644 77)" fill="none" opacity="0.414">
      <path d="M23.5,0C36.479,0,47,8.059,47,18S23.5,36,23.5,36,0,27.941,0,18,10.521,0,23.5,0Z" stroke="none"/>
      <path d="M 23.5 2.000003814697266 C 20.53713035583496 2.000003814697266 17.66694068908691 2.443161010742188 14.96913909912109 3.317173004150391 C 12.38771057128906 4.153482437133789 10.07630920410156 5.34541130065918 8.099140167236328 6.859832763671875 C 4.166049957275391 9.872411727905273 2 13.8287410736084 2 18.00000190734863 C 2 21.23955154418945 5.791538238525391 25.12996292114258 12.67617034912109 28.95457077026367 C 17.22117233276367 31.47945404052734 21.83446311950684 33.26214218139648 23.4999942779541 33.87485504150391 C 25.16576385498047 33.26205825805664 29.77882766723633 31.47945404052734 34.32382965087891 28.95457077026367 C 41.20845794677734 25.12996292114258 45 21.23955154418945 45 18.00000190734863 C 45 13.8287410736084 42.83395004272461 9.872411727905273 38.90085983276367 6.859832763671875 C 36.92369079589844 5.34541130065918 34.61228942871094 4.153482437133789 32.03086090087891 3.317173004150391 C 29.33305931091309 2.443161010742188 26.46286964416504 2.000003814697266 23.5 2.000003814697266 M 23.5 3.814697265625e-06 C 36.47869110107422 3.814697265625e-06 47 8.058872222900391 47 18.00000190734863 C 47 27.94113159179688 23.5 36 23.5 36 C 23.5 36 0 27.94113159179688 0 18.00000190734863 C 0 8.058872222900391 10.52130889892578 3.814697265625e-06 23.5 3.814697265625e-06 Z" stroke="none" fill="#fff"/>
    </g>
    <g id="Trazado_5" data-name="Trazado 5" transform="translate(707 107)" fill="none" opacity="0.414">
      <path d="M23.5,0C36.479,0,47,8.059,47,18S23.5,36,23.5,36,0,27.941,0,18,10.521,0,23.5,0Z" stroke="none"/>
      <path d="M 23.5 2 C 20.53713035583496 2 17.66694068908691 2.443161010742188 14.96913909912109 3.317169189453125 C 12.38771057128906 4.153480529785156 10.07630920410156 5.345409393310547 8.099151611328125 6.859840393066406 C 4.166049957275391 9.872419357299805 2 13.82873916625977 2 18 C 2 21.23954963684082 5.791538238525391 25.12995910644531 12.67617034912109 28.95457077026367 C 17.22117233276367 31.47945213317871 21.83446311950684 33.26213836669922 23.4999942779541 33.87485504150391 C 25.16576385498047 33.26205444335938 29.77882766723633 31.47945213317871 34.32382965087891 28.95457077026367 C 41.20845794677734 25.12995910644531 45 21.23954963684082 45 18 C 45 13.82873916625977 42.83395004272461 9.872419357299805 38.90084838867188 6.859840393066406 C 36.92369079589844 5.345409393310547 34.61228942871094 4.153480529785156 32.03086090087891 3.317169189453125 C 29.33305931091309 2.443161010742188 26.46286964416504 2 23.5 2 M 23.5 0 C 36.47869110107422 0 47 8.058879852294922 47 18 C 47 27.94112968444824 23.5 36 23.5 36 C 23.5 36 0 27.94112968444824 0 18 C 0 8.058879852294922 10.52130889892578 0 23.5 0 Z" stroke="none" fill="#fff"/>
    </g>
    <g id="Trazado_6" data-name="Trazado 6" transform="translate(770 76)" fill="none" opacity="0.414">
      <path d="M23.5,0C36.479,0,47,8.059,47,18S23.5,36,23.5,36,0,27.941,0,18,10.521,0,23.5,0Z" stroke="none"/>
      <path d="M 23.5 2 C 20.53713035583496 2 17.66694068908691 2.443161010742188 14.96913909912109 3.317169189453125 C 12.38771057128906 4.153480529785156 10.07630920410156 5.345409393310547 8.099151611328125 6.859840393066406 C 4.166049957275391 9.872419357299805 2 13.82873916625977 2 18 C 2 21.23954963684082 5.791538238525391 25.12995910644531 12.67617034912109 28.95457077026367 C 17.22117233276367 31.47945213317871 21.83446311950684 33.26213836669922 23.4999942779541 33.87485504150391 C 25.16576385498047 33.26205444335938 29.77882766723633 31.47945213317871 34.32382965087891 28.95457077026367 C 41.20845794677734 25.12995910644531 45 21.23954963684082 45 18 C 45 13.82873916625977 42.83395004272461 9.872419357299805 38.90084838867188 6.859840393066406 C 36.92369079589844 5.345409393310547 34.61228942871094 4.153480529785156 32.03086090087891 3.317169189453125 C 29.33305931091309 2.443161010742188 26.46286964416504 2 23.5 2 M 23.5 0 C 36.47869110107422 0 47 8.058879852294922 47 18 C 47 27.94112968444824 23.5 36 23.5 36 C 23.5 36 0 27.94112968444824 0 18 C 0 8.058879852294922 10.52130889892578 0 23.5 0 Z" stroke="none" fill="#fff"/>
    </g>
    <g id="Elipse_14" data-name="Elipse 14" transform="translate(653 41)" fill="none" stroke="#fff" stroke-width="2" opacity="0.414">
      <circle cx="14" cy="14" r="14" stroke="none"/>
      <circle cx="14" cy="14" r="13" fill="none"/>
    </g>
    <g id="Elipse_15" data-name="Elipse 15" transform="translate(717 72)" fill="none" stroke="#fff" stroke-width="2" opacity="0.414">
      <ellipse cx="13.5" cy="14" rx="13.5" ry="14" stroke="none"/>
      <ellipse cx="13.5" cy="14" rx="12.5" ry="13" fill="none"/>
    </g>
    <g id="Elipse_16" data-name="Elipse 16" transform="translate(780 41)" fill="none" stroke="#fff" stroke-width="2" opacity="0.414">
      <ellipse cx="13.5" cy="14" rx="13.5" ry="14" stroke="none"/>
      <ellipse cx="13.5" cy="14" rx="12.5" ry="13" fill="none"/>
    </g>
  </g>
</svg>
